<?xml version="1.0" encoding="UTF-8"?> <!-- Generator: Adobe Illustrator 22.1.0, SVG Export Plug-In . SVG Version: 6.00 Build 0) --> <svg xmlns="http://www.w3.org/2000/svg" xmlns:xlink="http://www.w3.org/1999/xlink" id="Layer_1" x="0px" y="0px" viewBox="0 0 103 103" style="enable-background:new 0 0 103 103;" xml:space="preserve"> <style type="text/css"> .st0{fill:none;stroke:#4A67B0;stroke-width:3;stroke-linecap:round;stroke-linejoin:round;stroke-miterlimit:10;} </style> <line class="st0" x1="16.2" y1="64.6" x2="90.2" y2="64.6"></line> <line class="st0" x1="23.2" y1="47.3" x2="39.3" y2="63.9"></line> <line class="st0" x1="44.1" y1="48" x2="59.5" y2="64"></line> <line class="st0" x1="66" y1="47.4" x2="81.5" y2="63.9"></line> <path class="st0" d="M87.7,95.5H17.9c-1.4,0-2.5-1.1-2.5-2.5V46.9h74.8V93C90.2,94.4,89.1,95.5,87.7,95.5z"></path> <g> <line class="st0" x1="17" y1="27.4" x2="37.7" y2="37.7"></line> <line class="st0" x1="36.9" y1="21.2" x2="56.8" y2="31.1"></line> <line class="st0" x1="57.4" y1="13.3" x2="77.5" y2="23.6"></line> <path class="st0" d="M11.4,28.3L77.1,4.7c1.3-0.5,2.7,0.2,3.2,1.5l5.5,15.2L15.4,46.7L9.9,31.5C9.4,30.2,10.1,28.7,11.4,28.3z"></path> </g> </svg> 